<?xml version="1.0" encoding="UTF-8" standalone="no"?>
<!-- Created with Inkscape (http://www.inkscape.org/) -->

<svg
   xmlns:dc="http://purl.org/dc/elements/1.1/"
   xmlns:cc="http://creativecommons.org/ns#"
   xmlns:rdf="http://www.w3.org/1999/02/22-rdf-syntax-ns#"
   xmlns:svg="http://www.w3.org/2000/svg"
   xmlns="http://www.w3.org/2000/svg"
   xmlns:sodipodi="http://sodipodi.sourceforge.net/DTD/sodipodi-0.dtd"
   xmlns:inkscape="http://www.inkscape.org/namespaces/inkscape"
   version="1.1"
   id="svg10"
   width="55"
   height="53.671528"
   viewBox="0 0 55 53.671528"
   sodipodi:docname="xxxzzzz.svg"
   inkscape:version="0.92.3 (2405546, 2018-03-11)">
  <metadata
     id="metadata16">
    <rdf:RDF>
      <cc:Work
         rdf:about="">
        <dc:format>image/svg+xml</dc:format>
        <dc:type
           rdf:resource="http://purl.org/dc/dcmitype/StillImage" />
        <dc:title></dc:title>
      </cc:Work>
    </rdf:RDF>
  </metadata>
  <defs
     id="defs14" />
  <sodipodi:namedview
     pagecolor="#ffffff"
     bordercolor="#666666"
     borderopacity="1"
     objecttolerance="10"
     gridtolerance="10"
     guidetolerance="10"
     inkscape:pageopacity="0"
     inkscape:pageshadow="2"
     inkscape:window-width="1280"
     inkscape:window-height="962"
     id="namedview12"
     showgrid="false"
     fit-margin-top="0"
     fit-margin-left="0"
     fit-margin-right="0"
     fit-margin-bottom="0"
     inkscape:zoom="5.6568542"
     inkscape:cx="45.500753"
     inkscape:cy="1.2528029"
     inkscape:window-x="-8"
     inkscape:window-y="-8"
     inkscape:window-maximized="1"
     inkscape:current-layer="svg10" />
  <g
     id="g20"
     transform="translate(0,-0.23849909)">
    <path
       style="fill:#fbb2c7"
       d="M 11,29 C 10.098708,28.41754 9.9753674,28.024514 10.690983,28.015313 11.346024,28.006891 12.160081,28.45 12.5,29 c 0.767305,1.241525 0.421123,1.241525 -1.5,0 z"
       id="path34"
       inkscape:connector-curvature="0" />
    <path
       style="fill:#fa98b5"
       d="m 10.776433,51.266503 c 2.352038,-0.211245 5.952038,-0.208273 8,0.0066 C 20.824395,51.487985 18.9,51.660822 14.5,51.65719 10.1,51.653557 8.4243949,51.477749 10.776433,51.266503 Z m 15.492599,0.04051 c 0.972967,-0.253543 2.322967,-0.236869 3,0.03705 C 29.946064,51.617986 29.15,51.825431 27.5,51.805051 25.85,51.784672 25.296064,51.560553 26.269032,51.307009 Z m 10.507401,-0.04051 c 2.352038,-0.211245 5.952038,-0.208273 8,0.0066 C 46.824395,51.487985 44.9,51.660822 40.5,51.65719 36.1,51.653557 34.424395,51.477749 36.776433,51.266503 Z M 18.269032,28.307009 c 0.972967,-0.253543 2.322967,-0.236869 3,0.03705 C 21.946064,28.617986 21.15,28.825431 19.5,28.805051 17.85,28.784672 17.296064,28.560553 18.269032,28.307009 Z m 16,0 c 0.972967,-0.253543 2.322967,-0.236869 3,0.03705 C 37.946064,28.617986 37.15,28.825431 35.5,28.805051 33.85,28.784672 33.296064,28.560553 34.269032,28.307009 Z"
       id="path32"
       inkscape:connector-curvature="0" />
    <path
       style="fill:#f986a8"
       d="m 24.415084,33 c 0,-10.175 0.148493,-14.3375 0.329984,-9.25 0.181491,5.0875 0.181491,13.4125 0,18.5 -0.181491,5.0875 -0.329984,0.925 -0.329984,-9.25 z m 6,0 c 0,-10.175 0.148493,-14.3375 0.329984,-9.25 0.181491,5.0875 0.181491,13.4125 0,18.5 -0.181491,5.0875 -0.329984,0.925 -0.329984,-9.25 z M 2.2521834,18.5 c 0.011099,-2.2 0.2158842,-2.982253 0.4550775,-1.738341 0.2391932,1.243913 0.2301119,3.043913 -0.020181,4 C 2.4367876,21.717747 2.241084,20.7 2.2521834,18.5 Z m 49.9999996,0 c 0.0111,-2.2 0.215885,-2.982253 0.455078,-1.738341 0.239193,1.243913 0.230112,3.043913 -0.02018,4 C 52.436788,21.717747 52.241084,20.7 52.252183,18.5 Z"
       id="path30"
       inkscape:connector-curvature="0" />
    <path
       style="fill:#f86d96"
       d="M 7.7835218,22.261596 C 10.689459,22.058954 15.189459,22.061084 17.783522,22.26633 20.377585,22.471575 18,22.637373 12.5,22.634769 7,22.632166 4.8775848,22.464237 7.7835218,22.261596 Z m 30.0000002,0 c 2.905937,-0.202642 7.405937,-0.200512 10,0.0047 C 50.377585,22.471575 48,22.637373 42.5,22.634769 37,22.632166 34.877585,22.464237 37.783522,22.261596 Z m -30.0000002,-8 C 10.689459,14.058954 15.189459,14.061084 17.783522,14.26633 20.377585,14.471575 18,14.637373 12.5,14.634769 7,14.632166 4.8775848,14.464237 7.7835218,14.261596 Z m 18.4855102,0.04541 c 0.972967,-0.253543 2.322967,-0.236869 3,0.03705 C 29.946064,14.617986 29.15,14.825431 27.5,14.805051 25.85,14.784672 25.296064,14.560553 26.269032,14.307009 Z m 11.51449,-0.04541 c 2.905937,-0.202642 7.405937,-0.200512 10,0.0047 C 50.377585,14.471575 48,14.637373 42.5,14.634769 37,14.632166 34.877585,14.464237 37.783522,14.261596 Z"
       id="path28"
       inkscape:connector-curvature="0" />
    <path
       style="fill:#f74a7e"
       d="m 4.3945574,38.5 c 0.00156,-7.7 0.1585346,-10.717812 0.3488322,-6.70625 0.1902976,4.011563 0.1890211,10.311563 -0.00284,14 C 4.5486953,49.482188 4.3929972,46.2 4.3945574,38.5 Z m 45.9999996,0 c 0.0016,-7.7 0.158535,-10.717812 0.348833,-6.70625 0.190297,4.011563 0.189021,10.311563 -0.0028,14 C 50.548695,49.482188 50.392997,46.2 50.394557,38.5 Z M 6.3917208,38 c 0,-7.425 0.1574233,-10.4625 0.3498295,-6.75 0.1924062,3.7125 0.1924062,9.7875 0,13.5 C 6.5491441,48.4625 6.3917208,45.425 6.3917208,38 Z m 42.0000002,0 c 0,-7.425 0.157423,-10.4625 0.349829,-6.75 0.192407,3.7125 0.192407,9.7875 0,13.5 -0.192406,3.7125 -0.349829,0.675 -0.349829,-6.75 z"
       id="path26"
       inkscape:connector-curvature="0" />
    <path
       style="fill:#f52664"
       d="m 10.776433,24.266503 c 2.352038,-0.211245 5.952038,-0.208273 8,0.0066 C 20.824395,24.487985 18.9,24.660822 14.5,24.65719 10.1,24.653557 8.4243949,24.477749 10.776433,24.266503 Z m 26,0 c 2.352038,-0.211245 5.952038,-0.208273 8,0.0066 C 46.824395,24.487985 44.9,24.660822 40.5,24.65719 36.1,24.653557 34.424395,24.477749 36.776433,24.266503 Z M 3,12.605035 C 3,12.387805 4.7621473,12.042023 6.9158828,11.836631 9.0696183,11.63124 10.618061,11.808974 10.356866,12.231596 9.8816162,13.000566 3,13.349882 3,12.605035 Z m 13,-0.17224 C 19.359197,11.682121 26.77755,11.551047 26.345534,12.25 26.090571,12.6625 23.321024,12.947799 20.190983,12.883999 17.060942,12.820198 15.175,12.617156 16,12.432795 Z M 28.654466,12.25 c -0.254962,-0.4125 1.630981,-0.615542 4.190983,-0.451204 7.302908,0.468807 8.188626,0.958315 1.963568,1.085203 C 31.678976,12.947799 28.909429,12.6625 28.654466,12.25 Z m 15.974697,-0.04101 c -0.268879,-0.435056 1.167063,-0.627442 3.190983,-0.427525 5.534173,0.54665 6.193071,1.050973 1.488871,1.139588 -2.305041,0.04342 -4.410975,-0.277008 -4.679854,-0.712063 z"
       id="path24"
       inkscape:connector-curvature="0" />
    <path
       style="fill:#f40148"
       d="M 6.25,53.337719 C 5.3338932,52.968062 5,49.109377 5,38.891916 V 24.950498 L 2.5,24 C 0.501459,23.240156 0,22.3589 0,19.606538 0,13.92543 0.76206887,13 5.4403221,13 10.404164,13 11.273011,12.410022 9.7948555,10.043119 8.2472533,7.5650142 9.6000111,3.3081888 12.549204,1.3758037 c 2.348417,-1.53874226 2.780102,-1.53105604 6.429235,0.1144735 2.151482,0.9701833 4.903469,2.819568 6.115526,4.1097439 l 2.203741,2.3457744 3.155439,-2.7705126 c 1.735492,-1.523782 4.590853,-3.3650802 6.345247,-4.091774 2.753449,-1.14051611 3.530436,-1.09807267 5.67983,0.3102648 2.925167,1.916643 4.269216,6.1797418 2.726923,8.6493453 C 43.726989,12.410022 44.595836,13 49.559678,13 54.237931,13 55,13.92543 55,19.606538 55,22.3589 54.498541,23.240156 52.5,24 L 50,24.950498 V 38.86826 C 50,50.636948 49.755753,52.879749 48.418213,53.393011 46.534534,54.115847 8.0533557,54.065389 6.25,53.337719 Z M 22,41.5 C 22,31.034364 21.992011,31 19.559017,31 18.216476,31 16.839919,30.55 16.5,30 16.139425,29.416577 17.156282,29 18.940983,29 21.550766,29 22,28.626683 22,26.457936 c 0,-2.529204 -0.03921,-2.540587 -7.75,-2.25 L 6.5,24.5 6.2217804,38.25 5.9435609,52 H 13.97178 22 Z M 31,33 V 14 H 27.5 24 V 33 52 H 27.5 31 Z M 48.77822,38.25 48.5,24.5 40.75,24.207936 C 33.039207,23.917349 33,23.928732 33,26.457936 33,28.502804 33.488968,29 35.5,29 c 1.375,0 2.5,0.45 2.5,1 0,0.55 -1.125,1 -2.5,1 H 33 V 41.5 52 h 8.02822 8.028219 z M 22,18.5 V 14 H 12 2 v 4.5 4.5 h 10 10 z m 31,0 V 14 H 43 33 V 18.5 23 H 43 53 Z M 26.293451,12.373216 C 28.443601,10.223065 19.754203,2 15.331966,2 c -4.570403,0 -6.0615137,6.6751697 -2.10946,9.443296 2.185817,1.531005 11.786806,2.214059 13.070945,0.92992 z m 15.484043,-0.92992 C 45.729548,8.6751697 44.238437,2 39.668034,2 35.245797,2 26.556399,10.223065 28.706549,12.373216 c 1.284139,1.284139 10.885128,0.601085 13.070945,-0.92992 z"
       id="path22"
       inkscape:connector-curvature="0" />
  </g>
</svg>
